<svg xmlns="http://www.w3.org/2000/svg" xmlns:xlink="http://www.w3.org/1999/xlink" width="153" height="153" viewBox="0 0 153 153" fill="none">
<rect x="0" y="0" width="0" height="0" fill="rgba(249, 249, 249, 1)" />
<rect  x="0" y="0" width="153" height="153" rx="14"    fill="#F14D42" >
</rect>
<path d="M130.237 31.9881L125.727 35.7935L127.103 41.4806C127.203 41.8923 127.178 42.3244 127.033 42.7222C126.887 43.1201 126.627 43.4658 126.285 43.7159C125.939 43.9702 125.525 44.1164 125.096 44.1361C124.667 44.1559 124.242 44.0482 123.874 43.8268L118.787 40.7655L113.701 43.8284C113.333 44.0505 112.908 44.1584 112.478 44.1387C112.049 44.119 111.636 43.9724 111.29 43.7175C110.947 43.4679 110.686 43.1223 110.54 42.7243C110.395 42.3264 110.37 41.8941 110.47 41.4822L111.846 35.7951L107.338 31.9881C107.011 31.7122 106.774 31.3453 106.657 30.9342C106.54 30.5231 106.548 30.0865 106.68 29.68C106.812 29.2735 107.062 28.9155 107.399 28.6517C107.735 28.3879 108.142 28.2302 108.569 28.1988L114.506 27.7296L116.79 22.3205C116.956 21.9288 117.235 21.5947 117.59 21.36C117.945 21.1252 118.362 21 118.787 21C119.213 21 119.63 21.1252 119.985 21.36C120.34 21.5947 120.618 21.9288 120.785 22.3205L123.069 27.7296L129.006 28.1988C129.432 28.2302 129.84 28.3879 130.176 28.6517C130.512 28.9155 130.763 29.2735 130.895 29.68C131.027 30.0865 131.035 30.5231 130.918 30.9342C130.801 31.3453 130.564 31.7122 130.237 31.9881ZM106.59 36.4089C106.471 36.2894 106.329 36.1946 106.173 36.1299C106.017 36.0652 105.85 36.0319 105.681 36.0319C105.512 36.0319 105.344 36.0652 105.188 36.1299C105.032 36.1946 104.89 36.2894 104.771 36.4089L95.3768 45.8018C95.1355 46.043 95 46.3702 95 46.7113C95 47.0525 95.1355 47.3797 95.3768 47.6209C95.6181 47.8621 95.9453 47.9977 96.2865 47.9977C96.6277 47.9977 96.9549 47.8621 97.1962 47.6209L106.59 38.2281C106.71 38.1087 106.805 37.9669 106.869 37.8108C106.934 37.6547 106.967 37.4874 106.967 37.3185C106.967 37.1496 106.934 36.9823 106.869 36.8262C106.805 36.6701 106.71 36.5283 106.59 36.4089ZM106.51 46.2421L97.9483 54.8009C97.7071 55.0422 97.5715 55.3693 97.5715 55.7105C97.5715 56.0516 97.7071 56.3788 97.9483 56.62C98.1896 56.8613 98.5168 56.9968 98.858 56.9968C99.1992 56.9968 99.5264 56.8613 99.7677 56.62L108.328 48.0596C108.559 47.8166 108.686 47.4929 108.681 47.1577C108.677 46.8224 108.542 46.5021 108.305 46.2651C108.068 46.028 107.747 45.8929 107.412 45.8886C107.077 45.8844 106.753 46.0112 106.51 46.2421ZM118.243 46.0814L109.517 54.8041C109.276 55.0454 109.14 55.3725 109.14 55.7137C109.14 56.0548 109.276 56.382 109.517 56.6232C109.758 56.8645 110.086 57 110.427 57C110.768 57 111.095 56.8645 111.336 56.6232L120.06 47.9005C120.302 47.6595 120.437 47.3325 120.437 46.9915C120.438 46.6505 120.302 46.3234 120.061 46.0822C119.82 45.841 119.493 45.7054 119.152 45.7052C118.811 45.7051 118.484 45.8404 118.243 46.0814Z"   fill="#DC1B21" >
</path>
<rect  x="16" y="66" width="121" height="71" rx="8"    fill="#FFFFFF" >
</rect>
<g >
<path     fill="#FFFFFF"  d="M31.338 23.99Q32.276 24.326 32.276 24.886Q32.276 25.068 32.108 25.572L29.42 33.342Q29.392 33.44 29.322 33.58Q29.252 33.72 28.951 33.951Q28.65 34.182 28.237 34.182Q27.824 34.182 27.523 33.951Q27.222 33.72 27.124 33.496L25.486 28.666Q23.932 33.258 23.904 33.342Q23.876 33.426 23.778 33.58Q23.68 33.734 23.554 33.86Q23.232 34.182 22.784 34.182Q22.336 34.182 22.049 33.972Q21.762 33.762 21.664 33.552L21.566 33.342L18.864 25.572Q18.71 25.11 18.71 24.886Q18.71 24.326 19.648 24.004Q20.054 23.864 20.383 23.864Q20.712 23.864 20.887 24.088Q21.062 24.312 21.202 24.774L22.742 29.45L24.268 24.844Q24.464 24.256 24.982 24.032Q25.206 23.934 25.563 23.934Q25.92 23.934 26.228 24.165Q26.536 24.396 26.62 24.62L28.23 29.478L29.77 24.774Q29.882 24.452 29.952 24.298Q30.022 24.144 30.211 23.997Q30.4 23.85 30.68 23.85Q30.96 23.85 31.338 23.99ZM38.968 24.662L42.748 32.474Q42.986 32.95 42.986 33.188Q42.986 33.692 42.174 34.098Q41.698 34.336 41.425 34.336Q41.152 34.336 40.977 34.21Q40.802 34.084 40.725 33.944Q40.648 33.804 40.508 33.524L39.78 32.012L35.902 32.012L35.174 33.524Q35.034 33.804 34.957 33.93Q34.88 34.056 34.705 34.189Q34.53 34.322 34.257 34.322Q33.984 34.322 33.508 34.084Q32.696 33.692 32.696 33.188Q32.696 32.95 32.934 32.474L36.714 24.648Q36.868 24.326 37.183 24.13Q37.498 23.934 37.848 23.934Q38.604 23.934 38.968 24.662ZM37.834 28.022L36.91 29.94L38.772 29.94L37.834 28.022ZM46.234 32.124L50.042 32.124Q50.504 32.124 50.714 32.229Q50.924 32.334 50.994 32.558Q51.064 32.782 51.064 33.153Q51.064 33.524 50.994 33.748Q50.924 33.972 50.756 34.056Q50.49 34.196 50.028 34.196L44.988 34.196Q44.008 34.196 43.84 33.664Q43.756 33.44 43.756 32.95L43.756 25.166Q43.756 24.844 43.777 24.683Q43.798 24.522 43.91 24.312Q44.106 23.934 45.002 23.934Q45.982 23.934 46.164 24.452Q46.234 24.69 46.234 25.18L46.234 32.124ZM56.37 29.044Q58.512 31.102 59.408 32.138Q59.87 32.656 59.87 33.013Q59.87 33.37 59.31 33.853Q58.75 34.336 58.393 34.336Q58.036 34.336 57.532 33.748L54.452 30.234L54.452 32.964Q54.452 33.3 54.431 33.454Q54.41 33.608 54.298 33.818Q54.102 34.196 53.206 34.196Q52.226 34.196 52.058 33.664Q51.974 33.44 51.974 32.95L51.974 25.166Q51.974 24.844 51.995 24.683Q52.016 24.522 52.128 24.312Q52.324 23.934 53.22 23.934Q54.2 23.934 54.382 24.452Q54.452 24.69 54.452 25.18L54.452 27.854Q56.356 25.712 57.532 24.34Q58.022 23.766 58.386 23.766Q58.75 23.766 59.31 24.249Q59.87 24.732 59.87 25.089Q59.87 25.446 59.45 25.936Q58.638 26.874 56.93 28.512L56.37 29.044ZM63.398 31.718L67.71 31.718Q68.032 31.718 68.193 31.739Q68.354 31.76 68.564 31.872Q68.942 32.068 68.942 32.964Q68.942 33.944 68.424 34.112Q68.186 34.196 67.696 34.196L62.152 34.196Q61.172 34.196 61.004 33.664Q60.92 33.44 60.92 32.95L60.92 25.166Q60.92 24.452 61.186 24.193Q61.452 23.934 62.194 23.934L67.71 23.934Q68.032 23.934 68.193 23.955Q68.354 23.976 68.564 24.088Q68.942 24.284 68.942 25.18Q68.942 26.16 68.424 26.328Q68.186 26.412 67.696 26.412L63.398 26.412L63.398 27.826L66.17 27.826Q66.492 27.826 66.653 27.847Q66.814 27.868 67.024 27.98Q67.402 28.176 67.402 29.072Q67.402 30.052 66.87 30.22Q66.632 30.304 66.142 30.304L63.398 30.304L63.398 31.718ZM77.706 32.46Q77.916 32.964 77.916 33.188Q77.916 33.72 77.048 34.084Q76.6 34.28 76.327 34.28Q76.054 34.28 75.879 34.147Q75.704 34.014 75.62 33.874Q75.48 33.608 74.528 31.34L74.094 31.368L72.33 31.368L72.33 32.95Q72.33 33.272 72.309 33.433Q72.288 33.594 72.176 33.804Q71.98 34.182 71.084 34.182Q70.104 34.182 69.936 33.664Q69.852 33.426 69.852 32.936L69.852 25.166Q69.852 24.844 69.873 24.683Q69.894 24.522 70.006 24.312Q70.202 23.934 71.098 23.934L74.122 23.934Q75.354 23.934 76.516 24.83Q77.076 25.264 77.44 26.006Q77.804 26.748 77.804 27.658Q77.804 29.24 76.754 30.262Q77.062 31.004 77.706 32.46ZM72.33 28.89L74.122 28.89Q74.528 28.89 74.934 28.582Q75.34 28.274 75.34 27.658Q75.34 27.042 74.934 26.727Q74.528 26.412 74.094 26.412L72.33 26.412L72.33 28.89ZM25.689 41.301Q25.689 41.301 25.7555 41.1785Q25.822 41.056 26.088 40.972Q26.354 40.888 26.753 40.888Q27.152 40.888 27.397 40.958Q27.642 41.028 27.761 41.126Q27.88 41.224 27.936 41.42Q28.02 41.644 28.02 42.134L28.02 49.904Q28.02 50.24 27.999 50.394Q27.978 50.548 27.866 50.758Q27.67 51.136 26.774 51.136Q26.228 51.136 26.018 51.052Q25.808 50.968 25.668 50.786Q22.518 46.586 21.524 45.298L21.524 49.904Q21.524 50.24 21.503 50.394Q21.482 50.548 21.37 50.758Q21.174 51.136 20.278 51.136Q19.41 51.136 19.214 50.758Q19.102 50.548 19.081 50.38Q19.06 50.212 19.06 49.89L19.06 42.078Q19.06 41.546 19.193 41.301Q19.326 41.056 19.592 40.972Q19.858 40.888 20.278 40.888Q20.698 40.888 20.943 40.965Q21.188 41.042 21.286 41.14Q21.342 41.182 21.608 41.504Q24.562 45.522 25.556 46.81L25.556 42.078Q25.556 41.546 25.689 41.301ZM31.618 48.658L35.93 48.658Q36.252 48.658 36.413 48.679Q36.574 48.7 36.784 48.812Q37.162 49.008 37.162 49.904Q37.162 50.884 36.644 51.052Q36.406 51.136 35.916 51.136L30.372 51.136Q29.392 51.136 29.224 50.604Q29.14 50.38 29.14 49.89L29.14 42.106Q29.14 41.392 29.406 41.133Q29.672 40.874 30.414 40.874L35.93 40.874Q36.252 40.874 36.413 40.895Q36.574 40.916 36.784 41.028Q37.162 41.224 37.162 42.12Q37.162 43.1 36.644 43.268Q36.406 43.352 35.916 43.352L31.618 43.352L31.618 44.766L34.39 44.766Q34.712 44.766 34.873 44.787Q35.034 44.808 35.244 44.92Q35.622 45.116 35.622 46.012Q35.622 46.992 35.09 47.16Q34.852 47.244 34.362 47.244L31.618 47.244L31.618 48.658ZM50.35 40.93Q51.288 41.266 51.288 41.826Q51.288 42.008 51.12 42.512L48.432 50.282Q48.404 50.38 48.334 50.52Q48.264 50.66 47.963 50.891Q47.662 51.122 47.249 51.122Q46.836 51.122 46.535 50.891Q46.234 50.66 46.136 50.436L44.498 45.606Q42.944 50.198 42.916 50.282Q42.888 50.366 42.79 50.52Q42.692 50.674 42.566 50.8Q42.244 51.122 41.796 51.122Q41.348 51.122 41.061 50.912Q40.774 50.702 40.676 50.492L40.578 50.282L37.876 42.512Q37.722 42.05 37.722 41.826Q37.722 41.266 38.66 40.944Q39.066 40.804 39.395 40.804Q39.724 40.804 39.899 41.028Q40.074 41.252 40.214 41.714L41.754 46.39L43.28 41.784Q43.476 41.196 43.994 40.972Q44.218 40.874 44.575 40.874Q44.932 40.874 45.24 41.105Q45.548 41.336 45.632 41.56L47.242 46.418L48.782 41.714Q48.894 41.392 48.964 41.238Q49.034 41.084 49.223 40.937Q49.412 40.79 49.692 40.79Q49.972 40.79 50.35 40.93ZM52.212 49.694Q51.848 49.246 51.848 48.889Q51.848 48.532 52.45 47.944Q52.8 47.608 53.192 47.608Q53.584 47.608 54.284 48.308Q54.48 48.546 54.844 48.763Q55.208 48.98 55.516 48.98Q56.818 48.98 56.818 47.916Q56.818 47.594 56.461 47.377Q56.104 47.16 55.572 47.062Q55.04 46.964 54.424 46.747Q53.808 46.53 53.276 46.236Q52.744 45.942 52.387 45.305Q52.03 44.668 52.03 43.772Q52.03 42.54 52.947 41.623Q53.864 40.706 55.446 40.706Q56.286 40.706 56.979 40.923Q57.672 41.14 57.938 41.364L58.288 41.63Q58.722 42.036 58.722 42.316Q58.722 42.596 58.386 43.086Q57.91 43.786 57.406 43.786Q57.112 43.786 56.678 43.506Q56.636 43.478 56.517 43.366Q56.398 43.254 56.3 43.184Q56.006 43.002 55.551 43.002Q55.096 43.002 54.795 43.219Q54.494 43.436 54.494 43.821Q54.494 44.206 54.851 44.444Q55.208 44.682 55.74 44.766Q56.272 44.85 56.902 45.025Q57.532 45.2 58.064 45.452Q58.596 45.704 58.953 46.327Q59.31 46.95 59.31 47.86Q59.31 48.77 58.946 49.463Q58.582 50.156 57.994 50.534Q56.86 51.276 55.572 51.276Q54.914 51.276 54.326 51.115Q53.738 50.954 53.374 50.716Q52.632 50.268 52.338 49.848L52.212 49.694Z">
</path>
</g>
</svg>
